#N canvas 474 69 912 800 10;
#X floatatom 403 97 5 0 0 0 clock tick -;
#N canvas 58 84 1259 683 clock 0;
#X obj 12 13 loadbang;
#X msg 12 36 bang;
#X obj 12 89 f;
#X obj 42 89 + 1;
#X obj 12 142 t f f;
#X obj 40 165 list prepend tick;
#X obj 12 218 s tick;
#X obj 39 188 s \$0/to-websocket;
#X obj 12 59 metro 433.333;
#X obj 12 112 mod 3;
#X obj 203 157 print;
#X connect 0 0 1 0;
#X connect 1 0 8 0;
#X connect 2 0 3 0;
#X connect 2 0 9 0;
#X connect 3 0 2 1;
#X connect 4 0 6 0;
#X connect 4 1 10 0;
#X connect 4 1 5 0;
#X connect 5 0 7 0;
#X connect 8 0 2 0;
#X connect 9 0 4 0;
#X restore 386 10 pd clock;
#X obj 136 34 r \$0/to-websocket;
#X obj 277 82 tgl 15 0 empty empty connected 17 7 0 10 -262144 -1 -1
0 1;
#X obj 357 205 r tick;
#X obj 136 110 s;
#N canvas 2 50 450 300 messages-to-local 0;
#X obj 14 15 inlet;
#X obj 14 256 outlet;
#X obj 269 258 outlet;
#X obj 14 120 list;
#X obj 14 91 t b a;
#X obj 14 233 list trim;
#X obj 269 212 list trim;
#X obj 14 68 list split 1;
#X obj 269 235 symbol;
#X connect 0 0 7 0;
#X connect 3 0 5 0;
#X connect 4 0 3 0;
#X connect 4 1 6 0;
#X connect 5 0 1 0;
#X connect 6 0 8 0;
#X connect 7 0 4 0;
#X connect 7 1 3 1;
#X connect 8 0 2 0;
#X restore 136 80 pd messages-to-local;
#X text 135 9 browser connection;
#X obj 9 53 tabread lookup;
#X obj 9 76 sel 1;
#X msg 9 99 1 \, 0 100;
#X text 6 7 sound;
#X obj 9 122 line~;
#X obj 9 145 *~;
#X obj 9 168 vcf~ 4;
#X obj 38 145 r cutoff;
#X obj 29 201 dac~;
#X obj 48 122 phasor~ 220;
#X obj 222 211 print;
#X obj 159 700 phasor~;
#X obj 193 723 cos~;
#X obj 160 912 dac~;
#X obj 160 866 *~;
#X obj 194 866 *~;
#X obj 159 677 line~;
#X obj 131 584 t f b;
#X obj 254 746 line~;
#X msg 304 723 0 4;
#X obj 213 538 line;
#X obj 131 538 random 100;
#X msg 263 495 0;
#X obj 213 426 select 100;
#X obj 213 449 t b b;
#X obj 401 574 random 100;
#X obj 400 600 expr $f1+100;
#X obj 432 369 vsl 15 128 0 1 0 0 empty empty empty 0 -9 0 10 -262144
-1 -1 8890 1;
#X obj 457 554 expr 400-($f1*300);
#X obj 270 449 * 10;
#X obj 223 474 pack 100 f;
#X msg 213 495 100 \$1;
#X obj 372 369 vsl 15 128 0.3 1.5 0 0 empty empty empty 0 -9 0 10 -262144
-1 -1 7408 1;
#X obj 131 561 expr $f1*$f3*8+$f2*$f3*10+50;
#X obj 74 470 vsl 15 128 30 100 0 0 empty empty empty 0 -9 0 10 -262144
-1 -1 7257 1;
#X obj 100 654 pack f f;
#X obj 349 646 t b b b b b;
#X obj 160 889 +~;
#X obj 194 889 +~;
#X obj 412 792 line~;
#X msg 412 769 \$1 10;
#X obj 518 792 line~;
#X msg 518 769 \$1 10;
#X obj 518 723 random 100;
#X obj 412 723 random 100;
#X obj 412 746 expr $f1/100-0.5;
#X obj 518 746 expr $f1/100-0.5;
#X msg 373 344 1;
#X msg 74 445 70;
#X msg 158 654 20;
#X text 561 767 add random offset;
#X text 562 781 to make the bubbles;
#X text 563 794 jump;
#X text 292 756 90ms attack;
#X text 292 768 4ms release;
#X text 292 743 bubble envelope;
#X obj 304 700 delay;
#X msg 432 344 0.7;
#X text 102 714 circular;
#X text 410 617 trigger at;
#X text 410 629 random intervals;
#X text 450 362 density;
#X text 336 362 pitch;
#X text 92 463 size;
#X text 118 505 pitch:;
#X text 117 519 rising + random;
#X obj 212 261 tgl 15 0 empty empty empty 17 7 0 10 -262144 -1 -1 1
1;
#X obj 349 623 metro 200;
#X msg 254 723 0.5 100;
#X obj 293 237 bng 15 250 50 0 empty empty empty 17 7 0 10 -262144
-1 -1;
#X obj 592 168 hsl 64 32 0 127 0 0 empty cutoff cutoff -2 -8 0 10 -262144
-1 -1 0 1;
#N canvas 2 50 450 250 (subpatch) 0;
#X array lookup 16 float 3;
#A 0 1 1 1 1 1 0 0 0 0 1 0 0 0 0 0 0;
#X coords 0 1.1 16 -0.1 80 32 1 0 0;
#X restore 580 115 graph;
#X obj 136 57 ../websocket-server 9001;
#X connect 2 0 80 0;
#X connect 4 0 8 0;
#X connect 4 0 77 0;
#X connect 6 0 5 0;
#X connect 6 1 5 1;
#X connect 8 0 9 0;
#X connect 9 0 10 0;
#X connect 9 0 18 0;
#X connect 10 0 12 0;
#X connect 12 0 13 0;
#X connect 13 0 14 0;
#X connect 14 1 16 0;
#X connect 14 1 16 1;
#X connect 15 0 14 1;
#X connect 17 0 13 1;
#X connect 19 0 20 0;
#X connect 20 0 23 0;
#X connect 22 0 45 0;
#X connect 23 0 46 0;
#X connect 24 0 19 0;
#X connect 25 0 43 0;
#X connect 25 1 57 0;
#X connect 26 0 23 1;
#X connect 26 0 22 1;
#X connect 27 0 26 0;
#X connect 28 0 31 0;
#X connect 28 0 41 1;
#X connect 29 0 41 0;
#X connect 30 0 28 0;
#X connect 31 0 32 0;
#X connect 32 0 38 0;
#X connect 32 1 30 0;
#X connect 33 0 34 0;
#X connect 34 0 75 1;
#X connect 35 0 36 0;
#X connect 36 0 33 1;
#X connect 36 0 37 0;
#X connect 37 0 38 1;
#X connect 38 0 39 0;
#X connect 39 0 28 0;
#X connect 40 0 41 2;
#X connect 41 0 25 0;
#X connect 42 0 43 1;
#X connect 42 0 64 1;
#X connect 43 0 24 0;
#X connect 44 0 33 0;
#X connect 44 1 29 0;
#X connect 44 2 64 0;
#X connect 44 3 76 0;
#X connect 44 4 51 0;
#X connect 44 4 52 0;
#X connect 45 0 21 0;
#X connect 46 0 21 1;
#X connect 47 0 45 1;
#X connect 48 0 47 0;
#X connect 49 0 46 1;
#X connect 50 0 49 0;
#X connect 51 0 54 0;
#X connect 52 0 53 0;
#X connect 53 0 48 0;
#X connect 54 0 50 0;
#X connect 55 0 40 0;
#X connect 56 0 42 0;
#X connect 57 0 24 0;
#X connect 64 0 27 0;
#X connect 65 0 35 0;
#X connect 74 0 55 0;
#X connect 74 0 65 0;
#X connect 74 0 75 0;
#X connect 74 0 56 0;
#X connect 74 0 39 0;
#X connect 75 0 44 0;
#X connect 76 0 26 0;
#X connect 77 0 74 0;
#X connect 80 0 6 0;
#X connect 80 1 3 0;
